  0
SECTION
  2
HEADER
  9
$ACADVER
  1
AC1014
  9
$HANDSEED
  5
FFFF
  9
$MEASUREMENT
 70
     1
  0
ENDSEC
  0
SECTION
  2
TABLES
  0
TABLE
  2
VPORT
  5
8
330
0
100
AcDbSymbolTable
 70
     4
  0
VPORT
  5
2E
330
8
100
AcDbSymbolTableRecord
100
AcDbViewportTableRecord
  2
*ACTIVE
 70
     0
 10
0.0
 20
0.0
 11
1.0
 21
1.0
 12
210.0
 22
148.5
 13
0.0
 23
0.0
 14
10.0
 24
10.0
 15
10.0
 25
10.0
 16
0.0
 26
0.0
 36
1.0
 17
0.0
 27
0.0
 37
0.0
 40
341.0
 41
1.24
 42
50.0
 43
0.0
 44
0.0
 50
0.0
 51
0.0
 71
     0
 72
   100
 73
     1
 74
     3
 75
     0
 76
     0
 77
     0
 78
     0
  0
ENDTAB
  0
TABLE
  2
LTYPE
  5
5
330
0
100
AcDbSymbolTable
 70
     1
  0
LTYPE
  5
14
330
5
100
AcDbSymbolTableRecord
100
AcDbLinetypeTableRecord
  2
BYBLOCK
 70
     0
  3

 72
    65
 73
     0
 40
0.0
  0
LTYPE
  5
15
330
5
100
AcDbSymbolTableRecord
100
AcDbLinetypeTableRecord
  2
BYLAYER
 70
     0
  3

 72
    65
 73
     0
 40
0.0
  0
LTYPE
  5
16
330
5
100
AcDbSymbolTableRecord
100
AcDbLinetypeTableRecord
  2
CONTINUOUS
 70
     0
  3
Solid line
 72
    65
 73
     0
 40
0.0
  0
ENDTAB
  0
TABLE
  2
LAYER
  5
2
100
AcDbSymbolTable
 70
3
  0
LAYER
  5
50
100
AcDbSymbolTableRecord
100
AcDbLayerTableRecord
  2
0
 70
0
  6
CONTINUOUS
  0
LAYER
  5
51
100
AcDbSymbolTableRecord
100
AcDbLayerTableRecord
  2
wheel
 70
0
  6
CONTINUOUS
  0
LAYER
  5
52
100
AcDbSymbolTableRecord
100
AcDbLayerTableRecord
  2
spoke
 70
0
  6
CONTINUOUS
  0
ENDTAB
  0
TABLE
  2
STYLE
  5
3
330
0
100
AcDbSymbolTable
 70
     1
  0
STYLE
  5
11
330
3
100
AcDbSymbolTableRecord
100
AcDbTextStyleTableRecord
  2
STANDARD
 70
     0
 40
0.0
 41
1.0
 50
0.0
 71
     0
 42
2.5
  3
txt
  4

  0
ENDTAB
  0
TABLE
  2
VIEW
  5
6
330
0
100
AcDbSymbolTable
 70
     0
  0
ENDTAB
  0
TABLE
  2
UCS
  5
7
330
0
100
AcDbSymbolTable
 70
     0
  0
ENDTAB
  0
TABLE
  2
APPID
  5
9
330
0
100
AcDbSymbolTable
 70
     2
  0
APPID
  5
12
330
9
100
AcDbSymbolTableRecord
100
AcDbRegAppTableRecord
  2
ACAD
 70
     0
  0
ENDTAB
  0
TABLE
  2
DIMSTYLE
  5
A
330
0
100
AcDbSymbolTable
 70
     1
  0
DIMSTYLE
105
27
330
A
100
AcDbSymbolTableRecord
100
AcDbDimStyleTableRecord
  2
ISO-25
 70
     0
  3

  4

  5

  6

  7

 40
1.0
 41
2.5
 42
0.625
 43
3.75
 44
1.25
 45
0.0
 46
0.0
 47
0.0
 48
0.0
140
2.5
141
2.5
142
0.0
143
0.03937007874016
144
1.0
145
0.0
146
1.0
147
0.625
 71
     0
 72
     0
 73
     0
 74
     0
 75
     0
 76
     0
 77
     1
 78
     8
170
     0
171
     3
172
     1
173
     0
174
     0
175
     0
176
     0
177
     0
178
     0
270
     2
271
     2
272
     2
273
     2
274
     3
340
11
275
     0
280
     0
281
     0
282
     0
283
     0
284
     8
285
     0
286
     0
287
     3
288
     0
  0
ENDTAB
  0
TABLE
  2
BLOCK_RECORD
  5
1
330
0
100
AcDbSymbolTable
 70
     1
  0
BLOCK_RECORD
  5
1F
330
1
100
AcDbSymbolTableRecord
100
AcDbBlockTableRecord
  2
*MODEL_SPACE
  0
BLOCK_RECORD
  5
1B
330
1
100
AcDbSymbolTableRecord
100
AcDbBlockTableRecord
  2
*PAPER_SPACE
  0
ENDTAB
  0
ENDSEC
  0
SECTION
  2
BLOCKS
  0
BLOCK
  5
20
330
1F
100
AcDbEntity
  8
0
100
AcDbBlockBegin
  2
*MODEL_SPACE
 70
     0
 10
0.0
 20
0.0
 30
0.0
  3
*MODEL_SPACE
  1

  0
ENDBLK
  5
21
330
1F
100
AcDbEntity
  8
0
100
AcDbBlockEnd
  0
BLOCK
  5
1C
330
1B
100
AcDbEntity
 67
     1
  8
0
100
AcDbBlockBegin
  2
*PAPER_SPACE
  1

  0
ENDBLK
  5
1D
330
1B
100
AcDbEntity
 67
     1
  8
0
100
AcDbBlockEnd
  0
ENDSEC
  0
SECTION
  2
ENTITIES
  0
LWPOLYLINE
  5
100
100
AcDbEntity
  8
spoke
 62
7
100
AcDbPolyline
 90
49
 70
0
 10
110.300000
 20
153.300039
 30
0.0
 10
111.301153
 20
152.993786
 30
0.0
 10
112.267391
 20
152.760321
 30
0.0
 10
113.198233
 20
152.599153
 30
0.0
 10
114.093199
 20
152.509793
 30
0.0
 10
114.951812
 20
152.491749
 30
0.0
 10
115.773590
 20
152.544533
 30
0.0
 10
116.558055
 20
152.667654
 30
0.0
 10
117.304726
 20
152.860623
 30
0.0
 10
118.013125
 20
153.122948
 30
0.0
 10
118.682771
 20
153.454139
 30
0.0
 10
119.313186
 20
153.853708
 30
0.0
 10
119.903890
 20
154.321163
 30
0.0
 10
120.454402
 20
154.856014
 30
0.0
 10
120.964244
 20
155.457772
 30
0.0
 10
121.432937
 20
156.125946
 30
0.0
 10
121.860000
 20
156.860047
 30
0.0
 10
123.481141
 20
156.643776
 30
0.0
 10
124.968498
 20
156.292289
 30
0.0
 10
126.326099
 20
155.826167
 30
0.0
 10
127.557972
 20
155.265994
 30
0.0
 10
128.668145
 20
154.632352
 30
0.0
 10
129.660647
 20
153.945825
 30
0.0
 10
130.539507
 20
153.226994
 30
0.0
 10
131.308752
 20
152.496443
 30
0.0
 10
131.972411
 20
151.774755
 30
0.0
 10
132.534512
 20
151.082511
 30
0.0
 10
133.370155
 20
149.868693
 30
0.0
 10
133.847908
 20
149.019649
 30
0.0
 10
133.999997
 20
148.700043
 30
0.0
 10
133.999997
 20
143.000029
 30
0.0
 10
133.750219
 20
143.244864
 30
0.0
 10
133.009597
 20
143.852856
 30
0.0
 10
132.459304
 20
144.233733
 30
0.0
 10
131.791201
 20
144.634236
 30
0.0
 10
131.006920
 20
145.030644
 30
0.0
 10
130.108097
 20
145.399235
 30
0.0
 10
129.096365
 20
145.716289
 30
0.0
 10
127.973357
 20
145.958084
 30
0.0
 10
126.740706
 20
146.100899
 30
0.0
 10
125.400047
 20
146.121014
 30
0.0
 10
123.953013
 20
145.994706
 30
0.0
 10
122.401238
 20
145.698255
 30
0.0
 10
121.586583
 20
145.478814
 30
0.0
 10
120.746355
 20
145.207940
 30
0.0
 10
119.880758
 20
144.882671
 30
0.0
 10
118.989997
 20
144.500040
 30
0.0
 10
111.999999
 20
146.700047
 30
0.0
 10
110.300000
 20
153.300039
 30
0.0
  0
LWPOLYLINE
  5
101
100
AcDbEntity
  8
spoke
 62
7
100
AcDbPolyline
 90
2
 70
0
 10
104.999999
 20
153.450215
 30
0.0
 10
104.999999
 20
143.549879
 30
0.0
  0
LWPOLYLINE
  5
102
100
AcDbEntity
  8
spoke
 62
7
100
AcDbPolyline
 90
2
 70
0
 10
100.050465
 20
148.500046
 30
0.0
 10
109.949530
 20
148.500046
 30
0.0
  0
ENDSEC
  0
SECTION
  2
OBJECTS
  0
DICTIONARY
  5
C
330
0
100
AcDbDictionary
  3
ACAD_GROUP
350
D
  3
ACAD_MLINESTYLE
350
17
  0
DICTIONARY
  5
D
330
C
100
AcDbDictionary
  0
DICTIONARY
  5
1A
330
C
100
AcDbDictionary
  0
DICTIONARY
  5
17
330
C
100
AcDbDictionary
  3
STANDARD
350
18
  0
DICTIONARY
  5
19
330
C
100
AcDbDictionary
  0
ENDSEC
  0
EOF
